<?xml version="1.0" encoding="utf-8"?>
<!-- Generator: Adobe Illustrator 21.0.0, SVG Export Plug-In . SVG Version: 6.00 Build 0)  -->
<svg version="1.1" id="Layer_1" xmlns="http://www.w3.org/2000/svg" xmlns:xlink="http://www.w3.org/1999/xlink" x="0px" y="0px"
	 viewBox="0 0 400 47.9" style="enable-background:new 0 0 400 47.9;" xml:space="preserve">
<style type="text/css">
	.st0{fill:#06357A;}
	.st1{fill:#00A3E3;}
</style>
<g>
	<g>
		<path class="st0" d="M60.4,31.9l1.4-2.3l0,0l-7.2-12c-1.7-3.1-5-5.2-8.8-5.2H31.1c3.8,0,6.9,2.2,8.8,5.2l11.8,19.6
			C55.5,37.2,58.6,35,60.4,31.9z"/>
		<path class="st1" d="M39.9,17.6c-1.8-3-5-5.2-8.8-5.2h-7c-3.5,0-7.1,1.6-9,4.9L7.6,29.8c2-3.3,5.4-4.8,9-4.8h27.7L39.9,17.6z"/>
		<path class="st1" d="M77.5,12.4c-3.3,0.1-6.4,1.8-8.2,4.8l-8.9,14.7c-1.8,3-5,5.2-8.8,5.2l-3.6-5.9l-5.7,9.5c-1.8,3-5,5.2-8.8,5.2
			h14.6c3.8,0,7-2.2,8.8-5.2l2.2-3.6h7.1c3.8,0,7-2.2,8.8-5.2L84,17.2l2.9-4.8H77.5z"/>
		<path class="st0" d="M28.1,12.4l-3.8-6.3c-1.9-3.1-5-5.2-8.8-5.2H0.8c3.8,0,6.9,2.2,8.8,5.2l6.2,10.2c2-2.7,5.2-4,8.4-4H28.1z
			 M21,25L33.6,46c3.8,0,6.9-2.2,8.8-5.2l1.4-2.3L35.7,25H21z"/>
	</g>
	<path class="st0" d="M93.6,35.4c0,1.6-0.6,2.4-1.7,2.4c-0.2,0-0.4,0-0.6-0.1l0.1,0.9c0.2,0,0.4,0,0.6,0c0.7,0,1.3-0.3,1.8-0.8
		c0.5-0.5,0.7-1.4,0.7-2.8V23h-0.9V35.4z M99.6,29.4h5.5v-0.8h-5.5v-4.9h5.6V23h-6.5v12.2h6.7v-0.8h-5.8V29.4z M109.2,23h-0.9v12.2
		h6.9v-0.8h-5.9V23z M121.9,30.4h2.5v3.3c-1,0.5-2.1,0.8-3.3,0.8c-1.7,0-3.1-0.5-4.1-1.5c-1-1-1.5-2.3-1.5-3.8
		c0-1.5,0.5-2.8,1.5-3.9c1-1,2.3-1.5,3.8-1.5c1.4,0,2.8,0.4,4.3,1.2v-1.1c-1.5-0.7-2.9-1-4.1-1c-1.8,0-3.4,0.6-4.6,1.8
		c-1.2,1.2-1.8,2.7-1.8,4.5c0,1.8,0.6,3.3,1.9,4.5c1.2,1.2,2.8,1.8,4.7,1.8c1.4,0,2.8-0.3,4.3-1v-4.7h-3.5V30.4z M132,22.9
		l-5.5,12.3h1l1.9-4.2h5.9l1.9,4.2h1l-5.5-12.3H132z M129.7,30.2l2.6-5.7l2.6,5.7H129.7z M147.1,23l-4.2,10.3L138.6,23h-0.9l5,12.3
		h0.3l5-12.3H147.1z M153,22.9l-5.5,12.3h1l1.9-4.2h5.9l1.9,4.2h1l-5.5-12.3H153z M150.6,30.2l2.6-5.7l2.6,5.7H150.6z M165.5,29.2
		c-0.4-0.2-1.1-0.5-2-0.9c-0.9-0.3-1.5-0.7-1.8-1.1c-0.3-0.4-0.4-0.8-0.4-1.3c0-0.7,0.2-1.2,0.7-1.7c0.5-0.4,1.1-0.7,1.8-0.7
		c0.7,0,1.6,0.3,2.7,0.9v-1c-0.9-0.5-1.8-0.8-2.8-0.8c-1,0-1.8,0.3-2.4,0.9c-0.7,0.6-1,1.4-1,2.3c0,0.6,0.1,1.2,0.4,1.6
		c0.3,0.4,0.6,0.7,1,0.9c0.4,0.2,1.1,0.5,2,0.9c0.9,0.4,1.5,0.8,1.8,1.2c0.3,0.4,0.5,0.9,0.5,1.4c0,0.7-0.2,1.3-0.7,1.7
		c-0.5,0.5-1.1,0.7-1.8,0.7c-0.9,0-1.9-0.4-3-1.3v1.1c1.1,0.7,2.1,1.1,3.1,1.1c1,0,1.8-0.3,2.5-1c0.7-0.6,1-1.4,1-2.4
		c0-0.7-0.1-1.3-0.4-1.7C166.2,29.8,165.9,29.5,165.5,29.2z M172.5,23.7h4.5v11.4h0.9V23.7h4.5V23h-9.9V23.7z M184.5,29.4h5.5v-0.8
		h-5.5v-4.9h5.6V23h-6.5v12.2h6.7v-0.8h-5.8V29.4z M201.5,28.6h-8V23h-0.9v12.2h0.9v-5.8h8v5.8h0.9V23h-0.9V28.6z M216.5,33.6
		L207.4,23h-0.8v12.2h0.9V24.5l9.1,10.7h0.8V23h-0.9V33.6z M226.4,22.8c-1.8,0-3.3,0.6-4.5,1.8c-1.2,1.2-1.8,2.7-1.8,4.4
		c0,1.7,0.6,3.2,1.8,4.4c1.2,1.2,2.7,1.8,4.5,1.8c1.8,0,3.3-0.6,4.5-1.8c1.2-1.2,1.8-2.7,1.8-4.4c0-1.7-0.6-3.2-1.8-4.4
		C229.6,23.4,228.1,22.8,226.4,22.8z M230.2,32.9c-1,1-2.3,1.6-3.8,1.6c-1.5,0-2.8-0.5-3.8-1.6c-1-1-1.6-2.3-1.6-3.8
		c0-1.5,0.5-2.8,1.6-3.8c1-1,2.3-1.6,3.8-1.6c1.5,0,2.8,0.5,3.8,1.6c1,1,1.5,2.3,1.5,3.8C231.7,30.6,231.2,31.8,230.2,32.9z
		 M236.3,23h-0.9v12.2h6.9v-0.8h-5.9V23z M248.8,22.8c-1.8,0-3.3,0.6-4.5,1.8c-1.2,1.2-1.8,2.7-1.8,4.4c0,1.7,0.6,3.2,1.8,4.4
		c1.2,1.2,2.7,1.8,4.5,1.8c1.8,0,3.3-0.6,4.5-1.8c1.2-1.2,1.8-2.7,1.8-4.4c0-1.7-0.6-3.2-1.8-4.4C252,23.4,250.5,22.8,248.8,22.8z
		 M252.6,32.9c-1,1-2.3,1.6-3.8,1.6c-1.5,0-2.8-0.5-3.8-1.6c-1-1-1.6-2.3-1.6-3.8c0-1.5,0.5-2.8,1.6-3.8c1-1,2.3-1.6,3.8-1.6
		c1.5,0,2.8,0.5,3.8,1.6c1,1,1.5,2.3,1.5,3.8C254.1,30.6,253.6,31.8,252.6,32.9z M264.2,30.4h2.5v3.3c-1,0.5-2.1,0.8-3.3,0.8
		c-1.7,0-3.1-0.5-4.1-1.5c-1-1-1.5-2.3-1.5-3.8c0-1.5,0.5-2.8,1.5-3.9c1-1,2.3-1.5,3.8-1.5c1.4,0,2.8,0.4,4.3,1.2v-1.1
		c-1.5-0.7-2.9-1-4.1-1c-1.8,0-3.4,0.6-4.6,1.8c-1.2,1.2-1.8,2.7-1.8,4.5c0,1.8,0.6,3.3,1.9,4.5c1.2,1.2,2.8,1.8,4.7,1.8
		c1.4,0,2.8-0.3,4.3-1v-4.7h-3.5V30.4z M270.7,35.2h0.9V23h-0.9V35.2z M275.9,35.4c0,1.6-0.6,2.4-1.7,2.4c-0.2,0-0.4,0-0.6-0.1
		l0.1,0.9c0.2,0,0.4,0,0.6,0c0.7,0,1.3-0.3,1.8-0.8c0.5-0.5,0.7-1.4,0.7-2.8V23h-0.9V35.4z M289.7,29.7c0,1.5-0.4,2.7-1.1,3.5
		c-0.8,0.8-1.7,1.2-3,1.2c-1.2,0-2.2-0.4-2.9-1.2c-0.8-0.8-1.1-2-1.1-3.4V23h-0.9v6.9c0,1.7,0.5,3,1.4,4c0.9,1,2.1,1.5,3.6,1.5
		c1.5,0,2.7-0.5,3.6-1.5c0.9-1,1.4-2.4,1.4-4.2V23h-0.9V29.7z M301.9,33.3L297.7,23h-0.9l5,12.3h0.3l5-12.3h-0.9L301.9,33.3z
		 M308.5,35.2h0.9V23h-0.9V35.2z M317.8,23h-4.2v12.2h4.4c2,0,3.6-0.6,4.7-1.7c1.1-1.2,1.7-2.6,1.7-4.4c0-1.8-0.6-3.3-1.7-4.4
		C321.5,23.5,319.9,23,317.8,23z M321.8,32.9c-1,1-2.3,1.5-3.9,1.5h-3.4V23.7h3.3c1.6,0,2.9,0.5,4,1.5c1,1,1.5,2.3,1.5,3.8
		C323.3,30.7,322.8,31.9,321.8,32.9z M335.8,29.7c0,1.5-0.4,2.7-1.1,3.5c-0.8,0.8-1.7,1.2-3,1.2c-1.2,0-2.2-0.4-2.9-1.2
		c-0.8-0.8-1.1-2-1.1-3.4V23h-0.9v6.9c0,1.7,0.5,3,1.4,4c0.9,1,2.1,1.5,3.6,1.5c1.5,0,2.7-0.5,3.6-1.5c0.9-1,1.4-2.4,1.4-4.2V23
		h-0.9V29.7z M344.2,29.2c-0.4-0.2-1.1-0.5-2-0.9c-0.9-0.3-1.5-0.7-1.8-1.1c-0.3-0.4-0.4-0.8-0.4-1.3c0-0.7,0.2-1.2,0.7-1.7
		c0.5-0.4,1.1-0.7,1.8-0.7c0.8,0,1.6,0.3,2.7,0.9v-1c-0.9-0.5-1.8-0.8-2.8-0.8c-1,0-1.8,0.3-2.4,0.9c-0.7,0.6-1,1.4-1,2.3
		c0,0.6,0.1,1.2,0.4,1.6c0.3,0.4,0.6,0.7,1,0.9c0.4,0.2,1.1,0.5,2,0.9c0.9,0.4,1.5,0.8,1.8,1.2c0.3,0.4,0.5,0.9,0.5,1.4
		c0,0.7-0.2,1.3-0.7,1.7c-0.5,0.5-1.1,0.7-1.8,0.7c-0.9,0-1.9-0.4-3-1.3v1.1c1.1,0.7,2.1,1.1,3.1,1.1c1,0,1.8-0.3,2.5-1
		c0.7-0.6,1-1.4,1-2.4c0-0.7-0.1-1.3-0.4-1.7C345,29.8,344.6,29.5,344.2,29.2z M352.8,29.2c-0.4-0.2-1.1-0.5-2-0.9
		c-0.9-0.3-1.5-0.7-1.8-1.1c-0.3-0.4-0.4-0.8-0.4-1.3c0-0.7,0.2-1.2,0.7-1.7c0.5-0.4,1.1-0.7,1.8-0.7c0.7,0,1.6,0.3,2.7,0.9v-1
		c-0.9-0.5-1.8-0.8-2.8-0.8c-1,0-1.8,0.3-2.4,0.9c-0.7,0.6-1,1.4-1,2.3c0,0.6,0.1,1.2,0.4,1.6c0.3,0.4,0.6,0.7,1,0.9
		c0.4,0.2,1.1,0.5,2,0.9c0.9,0.4,1.5,0.8,1.8,1.2c0.3,0.4,0.5,0.9,0.5,1.4c0,0.7-0.2,1.3-0.7,1.7c-0.5,0.5-1.1,0.7-1.8,0.7
		c-0.9,0-1.9-0.4-3-1.3v1.1c1.1,0.7,2.1,1.1,3.1,1.1c1,0,1.8-0.3,2.5-1c0.7-0.6,1-1.4,1-2.4c0-0.7-0.1-1.3-0.4-1.7
		C353.6,29.8,353.2,29.5,352.8,29.2z M364.9,23h-1.2L358,29V23h-0.9v12.2h0.9v-6.1l6.3,6.1h1.2l-6.3-6.1L364.9,23z M371.6,22.8
		c-1.8,0-3.3,0.6-4.5,1.8c-1.2,1.2-1.8,2.7-1.8,4.4c0,1.7,0.6,3.2,1.8,4.4c1.2,1.2,2.7,1.8,4.5,1.8c1.8,0,3.3-0.6,4.5-1.8
		c1.2-1.2,1.8-2.7,1.8-4.4c0-1.7-0.6-3.2-1.8-4.4C374.9,23.4,373.4,22.8,371.6,22.8z M375.4,32.9c-1,1-2.3,1.6-3.8,1.6
		c-1.5,0-2.8-0.5-3.8-1.6c-1-1-1.6-2.3-1.6-3.8c0-1.5,0.5-2.8,1.6-3.8c1-1,2.3-1.6,3.8-1.6c1.5,0,2.8,0.5,3.8,1.6
		c1,1,1.5,2.3,1.5,3.8C377,30.6,376.5,31.8,375.4,32.9z M381.2,23h-0.9v12.2h6.9v-0.8h-5.9V23z M393.2,22.9h-0.5l-5.5,12.3h1
		l1.9-4.2h5.9l1.9,4.2h1L393.2,22.9z M390.4,30.2l2.6-5.7l2.6,5.7H390.4z M261.9,38.9h0.7l1.5-2.8h-0.9L261.9,38.9z"/>
</g>
</svg>
